# File created by Blade
# Date/Time:  Wed Apr 08 14:47:20 2015
# Frame Rate: 120.000 fps
#------------------------------------------------------
:FULLY-SPECIFIED
:DEGREES
2110
root 6.378763 31.747081 -13.398146 31.892707 52.995429 3.189431
Spine -18.141931 6.294980 -2.701295
Head -27.691107 -37.681784 15.083859
LeftShoulder -19.456754 43.901215 4.485332
LeftArm 57.760563 12.101742 -73.106296
LeftForeArm 0.553128 -0.000000 123.867322
LeftHand 6.715478 -0.000000 -4.558594
LeftHandThumb1 -26.253704 0.000000 33.147579
RightShoulder 1.426210 -1.631709 -26.895218
RightArm 20.580466 -31.691422 77.574610
RightForeArm 9.822814 -0.000000 118.443781
RightHand 1.150838 -0.000000 17.630659
RightHandThumb1 -24.326973 -0.000000 -32.862282
LeftUpLeg -45.602994 -8.602564 -5.395987
LeftLeg 20.370758 -0.000000 -0.000000
LeftFoot -3.812353 10.421254 -2.751240
LeftToeBase -9.709001 -0.000000 0.000000
RightUpLeg -9.889527 2.673695 4.651183
RightLeg 35.180184 -0.000000 -0.000000
RightFoot 5.598909 5.870508 38.759354
RightToeBase 3.550865 -0.000000 -0.000000
2111
root 6.472506 31.747983 -13.295846 32.086612 53.747828 3.539172
Spine -18.245481 6.303683 -2.747910
Head -27.771268 -38.135535 15.232086
LeftShoulder -19.622117 43.809498 4.466650
LeftArm 58.116087 11.994726 -72.766942
LeftForeArm 0.985966 -0.000000 123.868424
LeftHand 6.298126 0.000000 -5.590324
LeftHandThumb1 -26.253704 0.000000 33.147579
RightShoulder 1.478560 -1.525366 -27.096572
RightArm 20.563187 -31.574518 77.275387
RightForeArm 10.056329 -0.000000 118.518910
RightHand 0.913721 -0.000000 17.582570
RightHandThumb1 -24.326973 -0.000000 -32.862282
LeftUpLeg -45.051495 -9.421869 -5.150264
LeftLeg 19.984666 -0.000000 -0.000000
LeftFoot -4.104058 10.714071 -2.546409
LeftToeBase -9.591275 -0.000000 0.000000
RightUpLeg -10.465604 2.481576 4.563485
RightLeg 39.277700 -0.000000 -0.000000
RightFoot 7.873019 6.582315 39.252513
RightToeBase 6.227638 -0.000000 -0.000000
2112
root 6.565218 31.746016 -13.194900 32.263137 54.542584 3.916224
Spine -18.329737 6.267764 -2.772208
Head -27.796657 -38.608122 15.337741
LeftShoulder -19.837804 43.719371 4.373644
LeftArm 58.569821 11.819908 -72.370813
LeftForeArm 1.392506 -0.000000 123.848278
LeftHand 5.851981 -0.000000 -6.906573
LeftHandThumb1 -26.253704 0.000000 33.147579
RightShoulder 1.516951 -1.422865 -27.277151
RightArm 20.540408 -31.391908 76.978952
RightForeArm 10.138692 0.000000 118.553399
RightHand 0.658773 -0.000000 17.975174
RightHandThumb1 -24.326973 -0.000000 -32.862282
LeftUpLeg -44.531773 -10.214874 -4.943309
LeftLeg 19.748617 -0.000000 -0.000000
LeftFoot -4.400365 10.941524 -2.328020
LeftToeBase -9.521377 -0.000000 0.000000
RightUpLeg -11.012966 2.111975 4.517925
RightLeg 43.557873 -0.000000 -0.000000
RightFoot 10.315991 7.004547 39.780861
RightToeBase 7.875007 -0.000000 -0.000000
2113
root 6.652986 31.740999 -13.095312 32.434209 55.369196 4.301858
Spine -18.406717 6.234571 -2.787838
Head -27.816656 -39.123215 15.426783
LeftShoulder -20.030545 43.659765 4.275130
LeftArm 59.121537 11.567946 -71.887627
LeftForeArm 1.711411 -0.000000 123.817518
LeftHand 5.382412 0.000000 -8.063453
LeftHandThumb1 -26.253704 0.000000 33.147579
RightShoulder 1.505974 -1.357951 -27.477088
RightArm 20.443246 -31.140156 76.759200
RightForeArm 10.108889 -0.000000 118.610694
RightHand 0.386987 -0.000000 18.880140
RightHandThumb1 -24.326973 -0.000000 -32.862282
LeftUpLeg -44.062598 -10.901546 -4.805038
LeftLeg 19.656853 -0.000000 -0.000000
LeftFoot -4.757985 11.012823 -2.209631
LeftToeBase -9.408484 -0.000000 0.000000
RightUpLeg -11.586447 1.653819 4.541877
RightLeg 48.117789 -0.000000 -0.000000
RightFoot 12.562886 7.590456 40.161190
RightToeBase 11.014683 -0.000000 -0.000000
2114
root 6.737724 31.735587 -12.996156 32.577749 56.225759 4.677088
Spine -18.474416 6.185099 -2.772888
Head -27.850926 -39.664266 15.508823
LeftShoulder -20.227730 43.612008 4.132467
LeftArm 59.746947 11.250614 -71.324500
LeftForeArm 1.897994 -0.000000 123.770813
LeftHand 5.003249 -0.000000 -9.246771
LeftHandThumb1 -26.253704 0.000000 33.147579
RightShoulder 1.472512 -1.324061 -27.699808
RightArm 20.285912 -30.873197 76.633205
RightForeArm 10.078388 -0.000000 118.649740
RightHand 0.202377 -0.000000 19.331376
RightHandThumb1 -24.326973 -0.000000 -32.862282
LeftUpLeg -43.615235 -11.501292 -4.692094
LeftLeg 19.660753 -0.000000 -0.000000
LeftFoot -5.131855 10.928581 -2.188571
LeftToeBase -9.426402 -0.000000 0.000000
RightUpLeg -12.117650 1.123437 4.605701
RightLeg 52.809508 -0.000000 -0.000000
RightFoot 14.767223 8.839020 40.500858
RightToeBase 12.570130 -0.000000 -0.000000
